@startuml
class Member
class BoardMember
class Event
class Conference
class BoardMeeting
class Location
class Person
class AAUOC

skinparam groupInheritance 2
Event <|-- Conference
Event <|-- BoardMeeting

Person <|-- Member
Member <|-- BoardMember
AAUOC o--"0..*" Location
AAUOC o--"0..*" Person
AAUOC o--"0..*" Event
Event "0..*"--"1" Location:isLocated In
BoardMeeting "0..*"--"0..*" BoardMember:attendsTo
Conference "0..*"--"0..*" Person:attendsTo
Event "0..*"--"0..*" Member:attendsTo

@enduml